<?xml version="1.0" encoding="utf-8"?>
<!-- Generator: Adobe Illustrator 21.0.0, SVG Export Plug-In . SVG Version: 6.00 Build 0)  -->
<svg version="1.1" id="Layer_1" xmlns="http://www.w3.org/2000/svg" xmlns:xlink="http://www.w3.org/1999/xlink" x="0px" y="0px"
	 viewBox="0 0 636.1 140.4" style="enable-background:new 0 0 636.1 140.4;" xml:space="preserve">
<style type="text/css">
	.st0{fill:url(#SVGID_1_);}
	.st1{fill:url(#SVGID_2_);}
	.st2{fill:url(#SVGID_3_);}
	.st3{fill:url(#SVGID_4_);}
	.st4{fill:url(#SVGID_5_);}
	.st5{fill:url(#SVGID_6_);}
	.st6{fill:url(#SVGID_7_);}
	.st7{fill:url(#SVGID_8_);}
	.st8{fill:url(#SVGID_9_);}
</style>
<g>
	<g>
		
			<linearGradient id="SVGID_1_" gradientUnits="userSpaceOnUse" x1="-14.647" y1="92.275" x2="656.5567" y2="92.275" gradientTransform="matrix(1 0 0 -1 0 142)">
			<stop  offset="1.502404e-03" style="stop-color:#DA8CFF"/>
			<stop  offset="1" style="stop-color:#9A55FF"/>
		</linearGradient>
		<path class="st0" d="M100.2,46L53.1,22.5c-1.2-0.6-2.5-0.6-3.7,0L2.3,46C0.9,46.7,0,48.2,0,49.7c0,1.6,0.9,3,2.3,3.7L49.4,77
			c0.6,0.3,1.2,0.4,1.9,0.4c0.6,0,1.3-0.1,1.9-0.4l47.1-23.5c1.4-0.7,2.3-2.1,2.3-3.7C102.5,48.2,101.6,46.7,100.2,46z M51.2,68.7
			l-37.8-19l37.8-18.9L89,49.7L51.2,68.7z"/>
	</g>
</g>
<g>
	<g>
		
			<linearGradient id="SVGID_2_" gradientUnits="userSpaceOnUse" x1="-14.647" y1="33.414" x2="656.5567" y2="33.414" gradientTransform="matrix(1 0 0 -1 0 142)">
			<stop  offset="1.502404e-03" style="stop-color:#DA8CFF"/>
			<stop  offset="1" style="stop-color:#9A55FF"/>
		</linearGradient>
		<path class="st1" d="M102,95c-1-2-3.5-2.9-5.6-1.9l-45.2,22.7L6,93.1c-2-1-4.5-0.2-5.6,1.9c-1,2-0.2,4.5,1.9,5.6l47.1,23.5
			c0.6,0.3,1.2,0.4,1.9,0.4c0.6,0,1.3-0.1,1.9-0.4l47.1-23.5C102.2,99.5,103,97,102,95z"/>
	</g>
</g>
<g>
	<g>
		
			<linearGradient id="SVGID_3_" gradientUnits="userSpaceOnUse" x1="-14.647" y1="56.9553" x2="656.5567" y2="56.9553" gradientTransform="matrix(1 0 0 -1 0 142)">
			<stop  offset="1.502404e-03" style="stop-color:#DA8CFF"/>
			<stop  offset="1" style="stop-color:#9A55FF"/>
		</linearGradient>
		<path class="st2" d="M102,71.4c-1-2-3.5-2.9-5.6-1.9L51.2,92.2L6,69.6c-2-1-4.5-0.2-5.6,1.9c-1,2-0.2,4.5,1.9,5.6l47.1,23.5
			c0.6,0.3,1.2,0.4,1.9,0.4c0.6,0,1.3-0.1,1.9-0.4l47-23.6C102.2,76,103,73.5,102,71.4z"/>
	</g>
</g>
<g>
	<linearGradient id="SVGID_4_" gradientUnits="userSpaceOnUse" x1="151" y1="80.5703" x2="617.0526" y2="80.5703">
		<stop  offset="1.502404e-03" style="stop-color:#DA8CFF"/>
		<stop  offset="1" style="stop-color:#9A55FF"/>
	</linearGradient>
	<path class="st3" d="M233.8,94.8c-2.5,17.4-17.7,28.3-39.9,28.3c-26.5,0-42.3-15.7-42.3-42c0-26.4,15.9-42.9,41.3-42.9
		c25,0,41.2,16,41.2,40.7v8.1h-53.6v1.9c0,7.9,5.7,13.6,13.8,13.6c6.1,0,11-2.9,12.7-7.7H233.8z M181,70.7h25.2
		c-0.5-7.3-5.6-11.9-12.6-11.9C186.7,58.7,181.5,63.7,181,70.7z"/>
	<linearGradient id="SVGID_5_" gradientUnits="userSpaceOnUse" x1="151" y1="68.1558" x2="617.0526" y2="68.1558">
		<stop  offset="1.502404e-03" style="stop-color:#DA8CFF"/>
		<stop  offset="1" style="stop-color:#9A55FF"/>
	</linearGradient>
	<path class="st4" d="M254.1,121V40h-27.8V15.3H313V40h-27.8v81H254.1z"/>
	<linearGradient id="SVGID_6_" gradientUnits="userSpaceOnUse" x1="151" y1="81.376" x2="617.0526" y2="81.376">
		<stop  offset="1.502404e-03" style="stop-color:#DA8CFF"/>
		<stop  offset="1" style="stop-color:#9A55FF"/>
	</linearGradient>
	<path class="st5" d="M401.5,121h-29.3v-15.9h-0.6c-3.2,11-10.8,17.5-22.9,17.5c-17.4,0-30.1-11.4-30.1-30.6V40.1h30v45.1
		c0,8.6,4.6,13.1,11.6,13.1c6.7,0,11.1-5.2,11.1-13V40.1h30V121z"/>
	<linearGradient id="SVGID_7_" gradientUnits="userSpaceOnUse" x1="151" y1="71.708" x2="617.0526" y2="71.708">
		<stop  offset="1.502404e-03" style="stop-color:#DA8CFF"/>
		<stop  offset="1" style="stop-color:#9A55FF"/>
	</linearGradient>
	<path class="st6" d="M450.1,22.4v17.7h14.2v21.8h-14.2v29.9c0,5.1,2.9,7.7,9.1,7.7c2.3,0,3.4-0.1,5.1-0.4v20.8
		c-2.9,0.6-6.7,1.1-12.4,1.1c-22.9,0-31.9-6.6-31.9-22.6V61.9h-10.7V40.1H420V22.4H450.1z"/>
	<linearGradient id="SVGID_8_" gradientUnits="userSpaceOnUse" x1="151" y1="80.5703" x2="617.0526" y2="80.5703">
		<stop  offset="1.502404e-03" style="stop-color:#DA8CFF"/>
		<stop  offset="1" style="stop-color:#9A55FF"/>
	</linearGradient>
	<path class="st7" d="M472.1,80.5c0-26.6,16.6-42.4,42.5-42.4c26.1,0,42.6,15.7,42.6,42.4c0,27.4-16.1,42.6-42.6,42.6
		C488.2,123.1,472.1,107.8,472.1,80.5z M526.7,80.6c0-13.2-4.7-21-12.1-21c-7.3,0-12,7.8-12,21c0,13.5,4.5,21,12,21
		C522,101.6,526.7,94.1,526.7,80.6z"/>
	<linearGradient id="SVGID_9_" gradientUnits="userSpaceOnUse" x1="151" y1="79.9844" x2="617.0526" y2="79.9844">
		<stop  offset="1.502404e-03" style="stop-color:#DA8CFF"/>
		<stop  offset="1" style="stop-color:#9A55FF"/>
	</linearGradient>
	<path class="st8" d="M566.4,40.1h29.3V56h0.6c3.1-11.5,9.3-17.1,18.9-17.1c2.7,0,5.1,0.4,7,1.2v25.2c-2.6-1.1-5.6-1.7-8.7-1.7
		c-11.3,0-17.1,5.8-17.1,17.1V121h-30V40.1z"/>
</g>
</svg>
